# xmcd
#
# Track frame offsets: 
#        150
#        15356
#        30352
#        50896
#        64976
#        80422
#        98688
#        116844
#        131566
#        147184
#
# Disc length: 2212 seconds
#
# Revision: 0
# Processed by: cddbd v1.5.2PL0 Copyright (c) Steve Scherf et al.
# Submitted via: ExactAudioCopyFreeDBPlugin 1.0
#
DISCID=8208a20a
DTITLE=Vieux Farka Touré - Julia Easterlin - Touristes
DYEAR=2015
DGENRE=Ethnic
TTITLE0=Little Things
TTITLE1=A'Bashiye (It's Alright)
TTITLE2=Masters of War
TTITLE3=I'm Not Done [feat. The Westerlies]
TTITLE4=In The Pines
TTITLE5=The World
TTITLE6=Took My Brother Down
TTITLE7=Spark
TTITLE8=Bamba Na Wili
TTITLE9=Apples and Champagne
EXTD=
EXTT0=
EXTT1=
EXTT2=
EXTT3=
EXTT4=
EXTT5=
EXTT6=
EXTT7=
EXTT8=
EXTT9=
PLAYORDER=
